<svg width="171" height="40" viewBox="0 0 171 40" fill="none" xmlns="http://www.w3.org/2000/svg">
<g clip-path="url(#clip0_7139_1074)">
<path d="M4.54587 23.113C3.1135 22.7861 1.71796 22.4655 0.276336 22.1381C0.407625 21.7127 0.518879 21.3189 0.64865 20.9259C2.14158 16.2956 3.63451 11.6652 5.12282 7.03459C5.32406 6.4037 5.71664 6.04625 6.3837 5.97078C7.39575 5.86044 8.40867 5.73157 9.41717 5.59786C9.67861 5.56371 9.69815 5.74094 9.75581 5.89676C10.3616 7.52595 10.9627 9.15491 11.5638 10.7839C11.5965 10.8782 11.6385 10.973 11.7008 11.129C12.0209 10.6336 12.3158 10.1834 12.6014 9.7328C13.3335 8.56534 14.0612 7.39304 14.7843 6.22051C15.1509 5.62521 15.454 5.49556 16.1454 5.59292C17.192 5.73475 18.2398 5.85344 19.2868 5.98601C19.4207 6.00156 19.5587 6.02659 19.6879 6.04192L18.8161 24.6493C17.5691 24.7254 16.359 24.8033 15.1117 24.884C14.8921 21.7464 14.6715 18.6319 14.4444 15.4568C12.7564 16.1294 11.1158 16.781 9.43288 17.4445C8.70016 15.5542 7.9712 13.6826 7.24246 11.8064C7.21468 11.8051 7.19154 11.804 7.16397 11.7981C6.29163 15.562 5.41951 19.3213 4.54124 23.1128" fill="#4F359B"/>
<path d="M40.7241 21.8386C41.9629 15.5027 43.1966 9.17589 44.4479 2.77099C46.137 3.36052 47.8217 3.84777 49.4279 4.52622C51.7483 5.50725 52.8872 7.44445 53.2894 9.8529C53.8103 12.9954 53.2716 15.9769 51.7764 18.7743C50.7949 20.6076 49.1747 21.6174 47.1265 21.7581C45.1993 21.8905 43.2575 21.8413 41.3214 21.8666C41.1404 21.8674 40.9556 21.8495 40.7288 21.8388" fill="#4F359B"/>
<path d="M35.3321 5.10456C35.9754 10.8837 36.6112 16.6253 37.255 22.3951C35.9764 22.5487 34.7259 22.6989 33.4147 22.8556C33.362 20.612 33.3127 18.3964 33.2601 16.1528C33.1953 16.1497 33.1397 16.1471 33.0927 16.1589C32.2091 16.4005 31.3341 16.6565 30.4464 16.884C29.9816 17.0014 29.717 17.2999 29.5443 17.7187C29.1368 18.6926 28.7248 19.6616 28.3175 20.6308C28.0354 21.3043 27.7669 21.9831 27.4758 22.6515C27.4342 22.747 27.3073 22.8803 27.2334 22.8722C25.9679 22.7479 24.7032 22.6052 23.3828 22.4644C23.5595 22.0598 23.7199 21.7053 23.876 21.3461C26.1016 16.3278 28.3317 11.3144 30.553 6.29122C30.8331 5.65939 31.2583 5.29883 31.983 5.28174C33.0842 5.24981 34.1782 5.17115 35.3319 5.1092" fill="#4F359B"/>
<path d="M60.4814 3.49935C63.4326 3.59586 66.3515 3.68621 69.3212 3.78358C69.1183 4.54896 68.9354 5.28279 68.7206 6.00584C68.6984 6.08368 68.5051 6.14887 68.3841 6.15712C67.2622 6.23448 66.1406 6.30721 65.0149 6.36583C64.7358 6.3806 64.5988 6.4345 64.5465 6.75685C64.3699 7.8529 64.1516 8.94699 63.9472 10.0417C63.9457 10.0741 63.9534 10.107 63.9603 10.1583C64.8076 10.198 65.6502 10.2375 66.4928 10.277C67.0716 10.3041 67.6509 10.3173 68.229 10.3583C68.3216 10.3627 68.4789 10.4721 68.4849 10.542C68.5634 11.4412 68.6185 12.3439 68.6808 13.2934C68.1068 13.364 67.5513 13.4354 66.9916 13.4973C65.5779 13.6631 64.16 13.8194 62.7459 13.9944C62.6431 14.0082 62.4847 14.1214 62.4715 14.2043C62.3265 15.1209 62.2047 16.0385 62.0779 16.9606C62.0764 16.993 62.0934 17.0263 62.1045 17.0871C63.7822 17.3281 65.4642 17.5739 67.1834 17.8215C67.1066 18.3701 67.0404 18.8913 66.9648 19.4167C66.9021 19.8639 66.8162 20.3099 66.772 20.7579C66.7471 20.9934 66.6433 21.0303 66.4347 21.0252C63.618 20.9303 60.8007 20.8494 57.9838 20.7592C57.5019 20.7459 57.0162 20.7138 56.4884 20.6891C57.8195 14.9561 59.1405 9.24118 60.4721 3.49892" fill="#4F359B"/>
<path d="M92.0167 13.3111C91.8072 13.9321 91.5984 14.5384 91.3962 15.145C91.1392 15.9251 90.8757 16.6999 90.6349 17.4906C90.4139 18.2136 90.0763 18.5743 89.5211 18.5874C88.8388 18.6043 88.1519 18.7189 87.4671 18.7895C87.3664 18.7994 87.2692 18.8046 87.1286 18.8127C87.2187 18.3867 87.3005 17.9944 87.3855 17.6072C88.0707 14.4611 88.7627 11.3153 89.4479 8.1692C89.5843 7.53995 89.6803 7.41731 90.123 7.37938C91.1595 7.29103 92.1955 7.21244 93.2317 7.12897C93.5838 7.10146 93.8288 7.36231 94.0321 7.72877C94.821 9.14459 95.6068 10.5554 96.396 11.9663C96.5534 12.2426 96.7109 12.5189 96.8991 12.8505C97.086 12.3556 97.2426 11.9375 97.3958 11.5193C97.9436 10.0243 98.4978 8.53451 99.036 7.02929C99.2553 6.4137 99.5747 6.15485 100.038 6.17168C100.882 6.21119 101.724 6.21152 102.568 6.23152C102.841 6.23945 103.115 6.25713 103.425 6.27165C103.2 7.20484 102.997 8.04611 102.794 8.89226C102.138 11.629 101.479 14.3607 100.836 17.0981C100.707 17.6495 100.47 17.9171 100.086 17.9969C98.598 18.3037 97.1132 18.6204 95.6277 18.9517C95.0471 19.081 94.6472 18.7738 94.3289 18.0792C93.6014 16.4952 92.8386 14.9485 92.0868 13.3829C92.0746 13.3579 92.052 13.3421 92.0138 13.3012" fill="#4F359B"/>
<path d="M84.4281 19.0232C82.6421 19.0667 80.883 19.1065 79.0903 19.1496C79.2109 18.5001 79.3259 17.8992 79.4376 17.2981C79.9586 14.5208 80.4829 11.7436 81.0039 8.96629C81.0977 8.46217 81.2684 8.24036 81.6312 8.19868C82.7764 8.07142 83.9208 7.95879 85.0625 7.83625C85.5359 7.78509 86.0096 7.72905 86.5302 7.67031C85.8274 11.4757 85.1302 15.2325 84.4279 19.0281" fill="#4F359B"/>
<path d="M112.475 21.4604C112.643 20.8558 112.772 20.3885 112.905 19.9261C113.343 18.3969 113.781 16.8676 114.228 15.3388C114.626 13.9794 115.047 12.6257 115.445 11.2616C116.014 9.31161 116.574 7.36121 117.121 5.40552C117.26 4.91555 117.559 4.65584 118.042 4.56244C119.325 4.3163 120.609 4.32545 121.846 4.76388C122.864 5.12245 123.775 5.68944 124.561 6.45009C126.128 7.96191 126.956 9.80102 126.756 11.9818C126.546 14.2873 125.728 15.6085 123.326 16.4657C122.783 16.6583 122.237 16.8323 121.682 16.978C121.405 17.0531 121.101 17.1131 120.829 17.0725C119.211 16.8436 118.713 17.5766 118.171 18.8272C117.943 19.3548 117.75 19.8979 117.521 20.4254C117.302 20.9395 116.929 21.2839 116.343 21.3075C115.088 21.3647 113.833 21.408 112.475 21.4604Z" fill="#4F359B"/>
<path d="M141.443 6.41862C141.332 6.80319 141.237 7.14674 141.138 7.48544C140.872 8.40563 140.592 9.32054 140.345 10.2462C140.272 10.5119 140.117 10.5557 139.893 10.5684C138.805 10.6334 137.72 10.7125 136.636 10.7777C135.905 10.8224 135.255 11.0239 134.907 11.7222C134.723 12.0848 134.625 12.4885 134.46 12.954C134.95 12.977 135.339 12.9952 135.728 13.0135C137.418 13.0926 139.112 13.1905 140.802 13.2558C141.14 13.2716 141.247 13.3787 141.203 13.7108C141.112 14.4582 141.036 15.2063 140.968 15.9502C140.948 16.1766 140.837 16.2781 140.627 16.31C139.598 16.4706 138.574 16.6453 137.541 16.7965C137.041 16.8705 136.514 16.8412 136.03 16.9716C135.673 17.0709 135.327 17.3099 135.037 17.5561C134.776 17.7852 134.557 18.0951 134.39 18.4028C134.09 18.9548 134.27 19.3854 134.874 19.5622C135.579 19.7716 136.305 19.9123 137.015 20.1126C137.629 20.2852 138.305 20.3076 138.802 20.7949C138.957 20.946 139.086 21.0681 138.958 21.3219C138.871 21.5034 138.879 21.7265 138.832 21.9285C138.734 22.3322 138.575 22.4732 138.161 22.4817C137.261 22.4952 136.355 22.5038 135.451 22.4985C133.656 22.4887 131.856 22.4647 130.062 22.4456C129.969 22.4412 129.877 22.423 129.784 22.4279C129.514 22.4431 129.479 22.293 129.522 22.0723C129.75 20.8673 129.965 19.6617 130.197 18.4615C130.576 16.5119 130.96 14.5625 131.348 12.6134C131.676 10.9722 132.003 9.33109 132.335 7.69017C132.443 7.16627 132.724 6.91495 133.269 6.88014C134.549 6.79163 135.833 6.72187 137.117 6.64284C138.434 6.5607 139.751 6.47393 141.068 6.39179C141.157 6.38665 141.249 6.40025 141.429 6.40871" fill="#4F359B"/>
<path d="M159.107 23.0714C159.184 22.4161 159.25 21.7974 159.325 21.1792C159.402 20.5378 159.492 19.8925 159.545 19.25C159.568 18.968 159.673 18.9126 159.937 18.9203C160.932 18.967 161.928 19.0043 162.926 19.0001C163.511 18.995 164.083 18.8548 164.525 18.43C165.177 17.8017 165.073 17.0359 164.806 16.2949C164.256 14.7658 163.521 13.3254 162.456 12.0923C161.959 11.5168 161.48 10.9422 161.287 10.2001C160.872 8.56591 161.319 7.13918 162.435 5.9108C163.33 4.92267 164.506 4.48129 165.784 4.25345C166.499 4.12459 167.215 4.00963 167.931 3.86688C168.217 3.81066 168.372 3.86897 168.474 4.16607C168.776 5.05253 169.111 5.92199 169.432 6.80469C169.461 6.88028 169.471 6.95501 169.502 7.08176C169.335 7.08784 169.191 7.095 169.047 7.09754C168.438 7.10616 167.863 7.20912 167.319 7.52237C166.337 8.09345 166.18 9.05589 166.473 9.8491C166.744 10.5903 167.129 11.295 167.538 11.9731C168.321 13.2719 169.086 14.5698 169.533 16.0291C169.935 17.3472 170.069 18.6526 169.341 19.9224C168.761 20.9253 167.856 21.5278 166.832 21.9764C165.53 22.5464 164.169 22.877 162.755 23.0335C161.557 23.1676 160.359 23.1811 159.107 23.0714Z" fill="#4F359B"/>
<path d="M158.066 4.789C157.924 5.34379 157.801 5.87167 157.656 6.3892C157.579 6.66395 157.482 6.93784 157.372 7.20182C157.111 7.83452 156.605 8.13562 155.948 8.193C155.291 8.25038 154.623 8.24229 153.978 8.35588C153.44 8.44669 152.92 8.65432 152.401 8.83881C151.641 9.11408 151.24 9.74028 150.998 10.4574C150.75 11.1882 150.53 11.9342 150.378 12.6927C149.949 14.807 150.89 16.8277 152.923 17.786C153.205 17.9198 153.507 18.0082 153.778 18.1602C153.891 18.2211 154.018 18.3941 154.012 18.5098C153.973 19.5427 153.916 20.5701 153.835 21.6011C153.79 22.1558 153.47 22.3681 152.942 22.2413C151.621 21.9149 150.295 21.5976 148.98 21.239C147.308 20.7848 146.444 19.6076 146.169 17.9475C146.032 17.1059 145.849 16.2621 145.815 15.4114C145.768 14.2214 145.81 13.0308 145.88 11.8416C145.931 10.9439 146.094 10.0513 146.458 9.21462C146.916 8.15495 147.634 7.29307 148.512 6.55936C149.555 5.6895 150.709 5.029 152.082 4.84739C152.502 4.79283 152.937 4.81322 153.364 4.8054C154.163 4.79178 154.962 4.78279 155.76 4.7738C156.419 4.76756 157.079 4.76132 157.737 4.75972C157.825 4.76384 157.913 4.77721 158.065 4.79363" fill="#4F359B"/>
<path d="M139.728 1.23011C139.312 1.80914 138.968 2.30808 138.606 2.7969C137.948 3.68476 137.289 4.57725 136.612 5.45035C136.494 5.60256 136.269 5.74978 136.078 5.76403C135.123 5.83531 134.162 5.85986 133.125 5.90872C133.233 5.66789 133.297 5.48993 133.384 5.32694C134.095 4.01003 134.811 2.69333 135.536 1.38169C135.582 1.29568 135.716 1.20452 135.804 1.20402C137.076 1.20326 138.351 1.21661 139.733 1.23032" fill="#4F359B"/>
<path d="M84.3298 38.5992L82.0907 38.3806C81.9776 37.7802 81.869 37.1344 81.7366 36.4977C81.669 36.1935 81.5601 35.9025 81.446 35.6052C81.3046 35.2366 81.0278 35.1409 80.691 35.3083C80.4267 35.437 80.1334 35.5687 79.9463 35.785C79.475 36.3341 79.019 36.9019 78.6277 37.5104C77.9123 38.6251 77.0277 38.8936 75.7777 38.2737C76.1704 37.5338 76.5574 36.7933 76.9547 36.0652C78.0499 34.0491 79.1554 32.0454 80.2393 30.0282C80.4492 29.6366 80.7338 29.4183 81.1718 29.3867C82.1453 29.3215 83.1182 29.262 84.137 29.2012C84.1989 32.3775 84.26 35.445 84.3241 38.5986" fill="#4F359B"/>
<path d="M45.6973 38.365L46.3336 31.8462L44.412 31.6586C44.5356 30.9783 44.6413 30.3648 44.7696 29.7536C44.7819 29.6861 44.933 29.6036 45.0248 29.6011C47.8839 29.5655 50.748 29.536 53.6983 29.5036C53.5375 30.2719 53.6142 31.069 53.1725 31.7241C53.0251 31.9443 52.711 32.1139 52.4357 32.1786C51.9435 32.2965 51.4251 32.3318 50.9157 32.3908C50.1576 32.477 49.8692 32.735 49.6993 33.4795C49.3571 34.9912 49.0088 36.508 48.644 38.0174C48.6153 38.1348 48.4718 38.3154 48.38 38.3178C47.5124 38.3533 46.6488 38.3491 45.6916 38.3644" fill="#4F359B"/>
<path d="M16.0519 33.9262L15.9113 35.366C15.4053 35.391 14.8942 35.4098 14.3876 35.4405C14.0884 35.4571 13.7898 35.468 13.4986 35.5196C12.5667 35.6862 11.9886 36.3909 12.0566 37.336C12.0649 37.4856 12.2852 37.6902 12.4463 37.7403C12.8416 37.8532 13.2565 37.8823 13.6608 37.9618C14.3236 38.0895 14.6877 38.4626 14.81 39.1441C12.6905 39.1661 10.5767 39.1887 8.39377 39.2159C8.62055 38.5342 8.82534 37.9018 9.03525 37.2757C9.79151 34.9804 10.5597 32.6805 11.2995 30.3779C11.3895 30.1006 11.5128 30.0096 11.8001 29.9976C13.3811 29.923 14.9535 29.819 16.5299 29.7325C16.6104 29.7289 16.6943 29.7486 16.7907 29.758C16.7437 30.2398 16.7142 30.7176 16.6337 31.1905C16.6248 31.2811 16.4256 31.3876 16.3043 31.3986C15.8658 31.436 15.4174 31.3979 14.9829 31.4528C13.9455 31.5861 13.4917 32.1313 13.459 33.1696C13.4484 33.4546 13.5342 33.5717 13.829 33.6005C14.5376 33.6697 15.2422 33.7785 15.9481 33.8761C15.9707 33.8783 15.9969 33.9037 16.04 33.9308" fill="#4F359B"/>
<path d="M35.7416 36.3511C36.9726 36.4026 38.2094 36.4546 39.5033 36.5066C39.2634 37.3816 39.0392 38.2123 38.7971 39.11C36.4334 38.7019 34.0806 38.3006 31.6495 37.8801C32.8877 36.1583 34.0982 34.4854 35.3494 32.7477C34.5163 32.7236 33.763 32.7016 32.9531 32.674C32.91 32.1776 32.8715 31.6932 32.8311 31.1685C33.9624 30.9527 35.0642 30.7456 36.1608 30.5322C36.6214 30.4455 37.083 30.3475 37.547 30.2841C37.6688 30.2673 37.8804 30.328 37.918 30.4118C38.1344 30.8908 38.3793 31.3725 38.4785 31.88C38.646 32.7433 38.1942 33.3859 37.6034 33.9863C36.9165 34.6918 36.2966 35.4725 35.6512 36.2221C35.6819 36.2594 35.712 36.3024 35.737 36.3392" fill="#4F359B"/>
<path d="M65.1889 30.2703C65.7016 30.1773 66.1735 30.0917 66.6862 29.9987C67.0996 31.3324 67.5096 32.6428 67.9534 34.0767C68.5339 33.2292 69.0614 32.4566 69.5884 31.6898C69.6686 31.5717 69.7215 31.4395 69.7909 31.3147C70.5247 30.0701 71.6307 29.7031 73.0358 30.258C73.0032 30.3579 72.9756 30.4639 72.9265 30.5564C71.9773 32.4838 71.0167 34.41 70.0675 36.3374C69.8537 36.7686 69.6564 37.2072 69.4698 37.6525C69.1261 38.4773 68.5325 38.8715 67.6427 38.8418C66.4332 38.8039 66.4014 38.7779 66.2303 37.5995C65.8876 35.2484 65.551 32.8922 65.214 30.5417C65.2036 30.472 65.1989 30.4029 65.1884 30.276" fill="#4F359B"/>
<path d="M5.73655 33.205C5.79668 33.4683 5.86691 33.6869 5.89634 33.913C5.97774 34.5447 5.70895 34.9534 5.09106 35.1277C4.83224 35.1997 4.56029 35.2304 4.29745 35.2848C2.84849 35.5897 2.03742 36.512 1.75005 37.9317C1.7069 38.1393 1.67453 38.3536 1.63705 38.5616C1.51341 39.242 1.35054 39.3863 0.653023 39.4384C0.456973 39.4536 0.261473 39.4631 0.00251537 39.4779C0.0191156 39.3079 0.0267276 39.1713 0.045123 39.0414C0.390763 36.6145 0.741515 34.1938 1.09227 31.7731C1.23611 30.7685 1.44186 30.5368 2.42696 30.3525C3.47607 30.1574 4.52351 29.9792 5.6412 29.785C5.71541 30.4904 5.79749 31.1737 5.85069 31.8599C5.85483 31.9347 5.7044 32.0688 5.60416 32.099C5.15219 32.2151 4.68708 32.2899 4.24023 32.4123C3.76448 32.5375 3.28762 32.6741 2.83979 32.865C2.51142 33.0046 2.45431 33.2966 2.70786 33.6304C3.68797 33.4971 4.6862 33.3542 5.74167 33.2112" fill="#4F359B"/>
<path d="M90.8449 37.9995C90.9502 37.6836 91.0318 37.4341 91.1252 37.1799C92.0413 34.6542 92.9688 32.1295 93.8798 29.5975C93.9985 29.2601 94.198 29.0335 94.5248 28.9109C95.0417 28.7152 95.5576 28.531 96.151 28.3142C95.558 30.6369 94.9773 32.8921 94.3922 35.1927C95.2967 35.424 96.1604 35.6629 97.0279 35.862C97.3132 35.9299 97.4409 36.0282 97.4162 36.3405C97.3921 36.7044 97.419 37.0733 97.4245 37.4858C95.2447 37.6565 93.0939 37.8242 90.8506 38.0001" fill="#4F359B"/>
<path d="M21.5967 39.0279C21.5844 38.3915 21.571 37.7665 21.5583 37.193C22.2072 36.9359 22.8181 36.7151 23.4103 36.4524C23.96 36.2142 24.0787 36.0542 23.8699 35.4959C23.6612 34.9376 23.3171 34.4176 23.0014 33.9003C22.6708 33.3588 22.2321 32.8696 21.9673 32.3001C21.6278 31.5574 21.888 30.8846 22.538 30.3815C23.4776 29.6664 24.0998 29.6241 25.2821 30.1744C25.0621 30.3761 24.8257 30.5705 24.6041 30.7892C24.1099 31.2789 24.0719 31.7273 24.5242 32.2521C24.8021 32.5711 25.136 32.844 25.4444 33.1431C26.5259 34.1986 26.753 35.3309 26.1539 36.7202C25.2955 38.7137 23.7768 39.4982 21.5853 39.0268" fill="#4F359B"/>
<path d="M60.1556 29.5556C59.9537 30.9207 59.7646 32.2127 59.5699 33.5042C59.3411 35.0269 59.1073 36.5434 58.8955 38.0678C58.8559 38.3558 58.7917 38.4869 58.4601 38.4831C57.6378 38.4658 56.8161 38.5001 55.9394 38.5118C56.1836 37.5342 56.4161 36.6184 56.6491 35.6969C57.1466 33.7655 57.6493 31.8403 58.1355 29.9077C58.2007 29.6509 58.3019 29.552 58.5643 29.5605C59.0783 29.5706 59.5884 29.5631 60.1556 29.5556Z" fill="#4F359B"/>
<path d="M84.7932 32.2813C84.9765 31.6353 85.1434 31.0393 85.3216 30.4444C85.4937 29.8546 85.7042 29.28 85.8536 28.688C86.0231 28.0064 86.5065 27.7446 87.1247 27.6848C87.7598 27.6266 88.3991 27.6432 89.1279 27.6228C89.0055 27.8798 88.9243 28.0664 88.8267 28.2458C88.2699 29.3187 87.7295 30.399 87.1347 31.4511C87.0037 31.6787 86.7044 31.8727 86.4394 31.9498C85.9263 32.1057 85.388 32.1676 84.7876 32.2807" fill="#4F359B"/>
</g>
<defs>
<clipPath id="clip0_7139_1074">
<rect width="170.581" height="40" fill="white"/>
</clipPath>
</defs>
</svg>
